P3
64 48
255
186 186 186
190 190 198
212 212 212
224 213 224
187 187 190
206 193 193
186 186 186
201 188 188
186 186 186
226 217 217
201 188 188
191 188 191
210 193 194
203 191 193
186 186 186
186 186 186
189 187 189
186 186 186
187 187 187
186 186 186
212 212 212
195 195 212
186 186 186
186 186 186
188 187 187
190 190 198
186 186 186
190 187 187
188 187 201
191 188 191
186 186 186
172 172 172
186 186 186
186 186 186
212 212 212
224 217 217
186 186 186
186 186 186
186 186 186
186 186 186
210 210 224
190 190 198
191 186 188
186 186 186
186 186 186
201 201 201
186 186 186
198 190 190
195 195 212
186 186 186
206 193 193
186 186 186
210 194 197
186 186 186
186 186 186
186 186 186
212 200 212
207 193 193
190 187 188
186 186 186
186 186 186
186 186 186
186 186 190
172 168 198
0 0 0
100 60 60
126 36 36
77 28 28
38 23 38
17 6 28
77 17 17
173 168 173
61 61 61
102 61 65
0 0 0
0 0 0
47 17 28
0 0 0
60 37 60
64 32 53
133 81 81
126 118 126
47 28 47
129 129 156
0 0 0
114 114 114
32 32 87
126 118 126
123 114 114
139 139 139
136 133 138
172 167 167
114 114 114
34 23 62
0 0 0
142 130 131
0 0 0
0 0 0
118 118 122
0 0 0
160 159 162
0 0 0
0 0 0
0 0 0
0 0 0
148 127 133
91 59 91
153 129 142
176 169 176
65 62 108
0 0 0
153 145 178
7 7 32
107 65 73
87 49 53
89 89 136
121 114 116
0 0 0
175 148 163
163 134 150
60 37 60
17 17 77
20 12 33
156 129 129
69 69 114
53 39 87
98 76 125
49 39 105
69 42 69
39 14 39
58 19 19
114 114 114
135 130 157
47 28 47
30 30 52
95 74 108
53 32 53
180 180 214
87 32 32
171 85 85
52 23 50
138 85 85
0 0 0
60 37 60
71 58 119
91 59 64
136 126 126
114 114 114
55 40 40
163 150 182
136 121 136
121 74 97
53 32 53
86 86 86
180 140 140
133 116 116
87 87 87
136 136 136
32 32 87
0 0 0
114 114 114
47 28 47
121 70 73
101 101 166
115 114 114
114 114 114
157 157 161
0 0 0
25 6 25
114 69 71
0 0 0
143 143 187
116 116 116
0 0 0
172 143 143
132 132 158
47 28 47
0 0 0
123 117 123
146 140 159
0 0 0
152 126 128
100 92 100
77 28 28
0 0 0
0 0 0
83 83 137
36 33 94
153 153 182
79 79 129
108 84 142
47 47 128
77 28 28
28 10 28
91 44 72
110 40 47
108 84 123
115 93 99
89 53 54
139 116 117
123 117 124
121 116 122
112 70 118
0 0 0
152 152 152
17 4 17
84 84 84
101 61 65
194 124 130
114 69 69
139 84 84
67 67 111
100 60 60
129 81 128
28 10 28
0 0 0
0 0 0
108 84 123
164 133 143
121 70 73
106 64 68
100 60 60
114 69 69
148 126 132
133 109 164
105 64 78
157 156 157
0 0 0
136 126 126
156 129 129
97 97 97
95 84 138
154 135 154
0 0 0
69 69 114
0 0 0
129 94 129
152 147 157
114 69 69
126 118 126
0 0 0
0 0 0
103 93 136
123 115 117
28 10 28
94 86 142
89 76 126
47 28 47
0 0 0
122 121 123
214 196 200
0 0 0
90 71 135
81 73 121
0 0 0
69 69 114
108 62 65
100 60 60
0 0 0
24 14 24
142 92 98
77 17 17
118 66 85
141 124 150
87 53 53
114 69 69
123 115 117
133 66 81
114 114 115
134 77 91
77 47 47
156 129 129
0 0 0
196 196 200
162 132 137
156 129 129
107 50 77
25 25 42
119 114 116
152 147 147
74 74 116
103 63 78
114 114 114
165 165 165
79 64 68
161 131 135
168 143 149
171 159 186
126 126 146
137 124 162
88 87 88
114 114 114
80 72 127
170 147 174
39 20 54
34 18 48
65 40 74
17 10 47
132 130 163
138 132 164
86 84 136
42 42 97
126 126 136
156 156 156
134 130 137
41 25 68
0 0 0
0 0 0
0 0 0
32 32 87
174 156 156
43 26 43
42 42 92
76 76 76
69 42 69
54 53 92
32 32 87
32 32 87
0 0 0
0 0 0
148 89 92
0 0 0
114 69 69
0 0 0
156 94 94
53 32 53
100 37 37
53 32 53
112 60 83
132 88 132
101 101 121
114 114 114
53 53 87
0 0 0
90 57 57
41 9 9
164 128 128
129 49 71
186 182 182
100 60 60
128 93 93
142 102 145
91 54 68
177 141 150
81 81 81
114 69 69
12 12 20
186 186 186
186 186 186
187 187 190
215 213 215
213 213 213
195 195 212
193 193 203
193 193 212
212 212 212
224 200 209
114 114 114
156 151 169
83 69 105
0 0 0
27 17 17
143 143 172
192 192 230
59 36 68
63 41 68
126 126 146
143 129 134
116 114 121
101 100 100
140 140 164
124 118 127
64 39 64
91 91 91
127 118 127
57 37 92
33 33 88
69 69 114
60 60 100
70 62 109
0 0 0
0 0 0
17 17 77
92 83 136
114 50 69
100 60 60
132 80 105
125 76 98
126 77 77
205 115 127
164 89 89
100 37 37
113 36 36
120 100 100
32 19 32
81 73 121
53 20 32
0 0 0
161 141 148
65 61 102
187 167 167
136 89 89
102 40 62
158 152 179
119 115 124
110 63 63
162 158 181
87 53 53
228 225 228
255 255 255
255 255 255
255 255 255
255 255 255
255 255 255
255 255 255
255 255 255
255 255 255
255 255 255
255 255 255
255 255 255
255 255 255
255 255 255
255 255 255
255 252 252
177 161 193
114 114 114
69 69 114
28 4 10
86 70 115
47 28 47
53 32 53
138 132 144
133 92 148
47 17 28
164 164 172
192 189 192
59 55 97
114 92 148
160 114 184
0 0 0
57 57 154
93 85 147
81 53 111
69 69 119
110 100 148
101 81 138
0 0 0
0 0 0
68 25 42
0 0 0
87 32 32
147 76 78
100 60 60
197 125 135
60 37 60
81 49 81
133 79 96
100 49 73
64 20 32
93 89 138
47 10 17
118 70 70
139 84 84
129 129 155
46 46 46
205 181 183
156 156 156
53 32 53
160 160 198
137 106 152
121 114 116
136 136 136
212 195 195
255 255 255
255 255 255
255 255 255
255 255 255
255 255 255
255 255 255
255 255 255
255 255 255
255 255 255
255 255 255
255 255 255
255 255 255
255 255 255
255 255 255
195 195 212
94 87 137
220 204 235
101 93 153
70 40 50
149 149 172
114 114 187
136 98 137
115 114 115
69 69 114
28 10 28
136 136 136
121 121 133
69 42 94
105 59 168
94 71 118
62 61 102
69 69 115
86 85 163
95 79 136
94 79 129
3 2 5
89 71 118
79 79 129
47 28 47
129 79 79
64 14 24
60 37 60
0 0 0
108 51 77
129 79 79
53 32 53
129 79 79
185 108 131
166 77 80
115 69 73
167 91 101
114 69 69
0 0 0
142 131 135
168 143 148
154 127 135
92 92 120
81 73 121
157 157 157
170 166 170
162 125 130
0 0 0
126 89 118
133 70 70
0 0 0
143 136 136
137 135 182
170 164 166
188 188 188
224 224 224
190 188 194
186 186 186
156 156 188
206 125 137
191 188 191
190 189 206
91 59 91
94 92 152
149 138 142
114 114 114
123 84 108
161 157 161
47 47 87
97 75 124
139 117 179
130 105 156
80 75 139
86 85 96
129 114 142
54 40 54
145 131 160
0 0 0
145 122 201
53 32 53
81 81 158
109 109 154
105 103 173
59 52 98
69 42 69
95 91 152
53 32 53
73 37 70
0 0 0
101 61 74
159 85 85
129 79 79
100 37 37
27 7 31
100 60 60
26 16 26
140 81 100
186 124 144
74 40 65
0 0 0
0 0 0
0 0 0
130 73 92
53 32 53
77 28 32
77 28 28
82 64 117
78 63 103
143 131 165
135 104 106
142 119 125
65 24 47
17 10 47
47 28 47
122 83 83
87 78 128
26 15 26
87 87 87
0 0 0
114 114 114
171 148 174
53 32 53
78 78 140
131 126 143
116 116 134
148 139 162
47 47 77
68 42 68
91 55 79
123 123 123
55 33 88
60 57 71
111 96 168
0 0 0
113 90 138
134 106 106
152 132 143
123 117 123
131 107 131
0 0 0
53 47 140
84 64 110
115 88 154
107 86 142
134 122 189
115 115 182
111 101 181
92 90 152
79 79 129
37 37 100
84 49 100
33 12 35
101 101 167
118 64 71
123 40 47
140 81 85
0 0 0
129 79 79
120 56 87
136 108 108
152 104 104
182 124 124
199 120 131
178 101 134
60 37 60
200 113 122
135 80 80
158 91 99
47 10 17
80 28 30
90 69 90
0 0 0
114 114 114
47 47 77
144 139 156
96 65 120
123 121 139
77 77 77
114 114 114
95 65 102
156 142 166
78 47 49
123 75 84
47 29 56
60 48 83
106 98 162
82 52 70
151 151 161
189 144 156
171 158 168
59 54 57
126 123 162
133 129 133
115 77 130
0 0 0
47 28 47
110 67 75
28 17 47
0 0 0
28 17 76
108 62 95
100 97 164
37 37 100
39 30 115
67 45 116
106 93 171
127 119 194
122 122 202
85 81 140
142 130 208
102 98 143
53 53 87
10 4 28
80 47 143
79 79 129
88 82 145
44 35 100
71 42 82
57 14 23
34 12 29
143 87 101
91 54 59
174 100 100
100 45 78
142 86 89
141 81 96
137 80 83
147 88 123
136 85 96
179 104 107
89 32 36
123 71 75
113 38 43
131 80 81
77 28 28
87 32 39
17 10 47
78 47 55
116 80 127
77 17 17
20 12 33
114 69 83
113 55 55
59 32 54
156 129 129
30 13 22
172 133 133
166 131 153
47 28 47
117 109 125
134 93 127
0 0 0
123 61 62
137 137 137
77 47 47
87 87 87
0 0 0
0 0 0
177 151 196
92 37 60
182 145 193
53 24 53
157 143 143
73 68 131
73 57 100
68 61 146
29 20 85
89 76 126
69 55 97
119 72 119
112 112 163
147 140 220
74 45 74
69 42 70
89 48 94
123 98 169
112 109 200
65 40 74
125 114 189
32 32 87
60 37 60
88 18 25
0 0 0
95 45 65
95 58 74
146 116 132
174 125 127
179 108 110
110 67 87
178 116 118
161 94 104
224 126 128
54 20 24
179 108 109
201 114 128
172 88 88
97 38 62
0 0 0
47 47 77
39 7 20
91 55 68
53 53 87
145 100 129
79 78 134
42 42 69
125 88 117
148 144 171
115 115 115
87 53 53
114 69 69
76 64 125
144 137 174
3 1 5
77 77 79
108 102 108
0 0 0
77 28 28
0 0 0
0 0 0
79 79 146
53 32 53
64 64 105
28 17 47
54 34 54
130 119 131
152 146 168
75 47 103
36 33 97
91 51 84
58 40 102
105 91 163
30 21 56
96 96 159
95 81 138
141 136 224
50 43 131
73 73 152
53 32 53
92 88 173
28 17 47
47 17 28
121 117 198
98 98 177
101 101 167
60 26 60
205 124 124
36 22 60
100 60 60
152 74 80
0 0 0
0 0 0
129 79 79
100 61 62
60 34 60
205 124 124
148 71 75
145 87 104
205 119 133
129 79 94
77 17 17
181 98 122
77 10 10
0 0 0
101 59 69
123 87 123
215 203 215
139 101 112
121 121 133
74 74 122
18 18 48
110 103 110
75 71 123
0 0 0
81 73 121
148 131 148
148 93 110
126 84 116
77 47 47
115 69 92
91 54 89
146 144 169
147 147 147
130 111 171
60 60 100
170 144 147
39 14 39
176 176 187
60 60 100
12 7 20
95 95 138
47 17 28
73 57 100
74 74 116
105 88 177
110 105 176
32 12 49
134 124 172
36 33 91
97 97 152
142 141 186
113 91 165
153 138 223
96 85 140
47 17 28
33 20 40
107 65 113
28 17 47
61 51 138
54 43 106
174 108 124
0 0 0
135 80 82
172 103 118
145 82 88
69 42 69
129 79 79
129 79 79
150 91 91
154 91 110
146 73 80
131 80 89
113 61 63
155 94 97
0 0 0
53 29 49
136 82 82
145 88 94
122 62 62
47 28 47
105 64 64
146 99 125
108 108 122
73 72 81
121 69 69
129 129 129
82 42 91
139 137 147
77 47 47
121 107 121
117 72 139
183 180 180
121 73 81
144 123 123
182 180 198
152 132 132
53 53 87
28 10 28
143 133 152
0 0 0
100 60 73
129 96 105
129 109 183
140 81 130
173 173 182
146 146 164
126 126 148
0 0 0
83 69 114
118 118 197
104 96 159
118 97 168
146 144 211
60 60 100
83 83 152
108 107 165
152 147 230
137 132 220
115 79 132
79 79 129
69 42 69
75 45 84
28 17 47
53 20 32
56 32 54
167 101 101
82 30 58
127 76 91
0 0 0
171 88 99
78 30 53
208 118 130
0 0 0
216 109 111
247 163 164
252 169 173
179 109 109
69 42 69
69 42 69
131 78 82
148 133 137
165 141 148
117 88 124
159 159 159
120 56 57
114 69 69
66 63 75
142 132 134
168 161 167
0 0 0
59 33 55
125 111 164
136 136 136
53 53 87
150 94 111
51 29 71
39 20 53
141 140 145
91 68 97
80 55 92
100 61 61
190 171 187
187 164 202
111 94 156
129 129 129
170 165 181
192 180 209
17 10 47
73 60 115
91 36 55
132 130 136
104 48 99
67 47 103
44 37 100
98 94 161
92 92 152
109 108 182
90 88 169
115 110 182
129 129 182
121 115 191
93 93 155
117 111 183
80 79 131
112 105 173
79 79 129
84 84 139
73 73 133
140 81 88
129 78 94
53 32 55
114 69 83
132 78 92
153 91 108
236 171 174
100 60 73
165 121 121
195 141 150
249 169 188
104 39 64
136 83 92
82 43 64
129 79 79
129 79 79
138 100 100
60 60 100
0 0 0
36 36 98
97 55 59
47 28 47
77 17 17
129 129 129
30 30 30
94 94 105
133 133 133
164 146 146
129 129 129
157 139 143
114 69 69
172 149 149
104 104 146
0 0 0
142 138 142
125 88 129
171 139 147
159 134 134
81 73 121
126 118 140
0 0 0
17 17 77
110 103 110
53 53 87
114 69 81
144 106 164
60 60 100
53 53 87
68 58 107
24 24 89
143 135 183
142 142 207
17 17 77
153 153 225
148 148 217
128 115 136
56 21 56
82 79 130
79 79 129
55 50 91
101 101 136
8 5 58
30 29 87
37 37 100
174 106 119
53 32 53
137 69 73
100 37 44
182 129 129
143 87 101
176 107 107
132 80 107
200 150 152
158 96 130
252 170 178
142 81 85
185 112 121
78 42 72
136 115 115
184 104 135
80 32 53
89 76 126
140 136 142
79 46 74
154 133 138
129 129 129
172 123 169
157 101 138
28 28 77
65 40 67
136 130 132
0 0 0
202 178 184
0 0 0
152 136 137
28 28 127
211 190 210
146 146 164
149 148 183
0 0 0
198 187 203
177 177 177
128 128 152
120 105 141
74 45 74
135 82 90
114 69 69
175 170 175
182 182 182
108 58 92
156 129 149
82 48 89
95 80 147
21 19 40
109 108 136
0 0 0
105 105 184
154 153 186
133 122 196
175 174 224
83 80 137
143 121 199
129 129 182
114 114 186
0 0 0
17 17 77
79 79 129
65 22 55
103 63 78
28 17 47
60 37 60
113 36 36
104 63 63
189 113 123
41 15 41
195 141 161
149 91 105
176 107 107
217 160 160
166 94 110
177 108 108
115 45 58
28 10 28
87 32 32
28 10 28
130 130 130
157 136 169
17 6 28
122 76 99
147 136 141
105 68 68
0 0 0
108 52 75
47 28 47
197 197 197
164 146 146
180 156 168
147 131 131
0 0 0
152 137 137
131 130 135
47 28 47
68 54 91
139 110 135
178 178 190
53 32 53
199 199 199
152 98 132
47 17 28
117 115 139
138 138 153
187 183 185
113 68 68
180 149 159
29 18 47
91 69 139
118 96 159
104 100 136
118 106 175
37 37 102
113 113 140
172 170 225
98 80 144
179 177 246
88 53 117
154 135 217
80 80 132
108 108 177
77 77 128
78 75 141
118 105 173
94 79 129
0 0 0
16 6 10
137 102 102
84 51 103
157 118 132
131 79 81
136 82 82
100 37 37
152 83 83
182 148 148
186 163 163
187 141 142
91 42 60
172 122 127
143 41 42
143 84 85
129 75 86
136 136 136
216 207 207
143 110 135
108 102 108
164 144 159
182 170 172
123 123 136
186 184 184
149 145 168
169 169 199
172 149 149
129 129 156
136 136 136
168 141 142
60 37 60
100 100 100
114 70 73
100 81 121
133 100 136
209 209 209
96 81 135
0 0 0
184 181 186
84 84 139
132 130 137
74 74 122
108 65 74
93 93 110
126 126 146
30 21 50
0 0 0
80 80 152
112 94 143
84 71 117
149 148 203
89 63 111
0 0 0
117 94 158
111 111 169
79 79 129
142 123 197
94 79 129
81 81 149
74 36 113
96 85 136
77 71 117
89 54 89
142 79 91
0 0 0
100 37 37
136 85 85
171 103 117
171 107 116
122 66 84
149 87 102
162 86 93
194 121 143
129 79 79
191 126 135
197 108 108
194 134 144
200 121 123
137 83 92
0 0 0
14 14 102
189 186 211
124 117 133
17 10 77
97 97 113
100 100 100
136 136 136
142 138 142
12 4 12
91 68 97
118 70 76
143 143 167
115 70 83
138 136 138
105 81 82
131 130 135
136 136 136
149 149 172
177 177 196
143 139 157
166 149 157
141 136 147
173 173 198
116 70 95
0 0 0
67 67 127
126 114 138
65 62 108
129 129 129
158 132 158
129 94 129
47 41 110
112 102 180
132 122 200
79 79 129
110 108 179
83 83 152
103 88 152
125 114 183
137 130 215
102 83 144
121 110 182
159 125 191
119 108 149
79 79 129
33 20 54
79 79 129
109 66 77
142 87 95
167 87 96
77 17 17
129 77 77
111 67 78
145 86 99
0 0 0
53 32 32
186 131 135
187 126 132
214 130 131
147 72 116
114 69 83
149 87 106
160 86 97
35 13 45
124 85 108
205 190 204
170 108 135
53 20 32
171 94 100
91 47 47
168 115 115
117 70 112
123 59 85
53 32 53
174 150 158
157 95 103
118 113 146
100 60 60
132 132 152
77 77 77
95 76 131
147 136 147
216 215 217
189 170 175
121 114 115
166 157 183
97 55 68
199 183 187
130 83 106
108 84 123
102 100 102
148 138 175
28 28 77
129 129 129
33 32 88
69 69 114
113 112 197
98 72 118
124 114 187
162 140 203
79 79 129
150 143 225
158 124 164
81 80 134
63 41 68
82 80 135
32 20 53
111 111 187
64 49 80
32 12 39
60 44 115
129 79 79
71 40 74
91 25 36
171 96 118
152 77 78
214 127 132
47 10 17
209 143 144
182 115 115
0 0 0
28 10 28
32 4 12
209 146 158
129 79 79
100 37 37
109 38 53
136 110 112
192 173 202
97 59 68
147 135 135
167 167 167
60 60 100
0 0 0
172 149 150
173 172 184
124 75 85
199 199 202
0 0 0
177 177 177
165 143 143
23 8 14
131 96 134
166 164 170
164 164 164
146 134 153
143 143 157
167 167 167
80 80 105
55 54 97
77 77 77
129 129 129
139 134 139
136 136 136
166 150 161
131 131 147
0 0 0
28 10 28
53 53 87
0 0 0
109 94 171
88 83 147
118 93 173
148 148 186
135 115 191
82 82 144
129 129 182
116 104 165
70 43 81
125 125 186
79 79 129
47 47 127
53 7 12
60 22 60
71 71 117
136 60 82
187 106 109
146 76 76
139 81 93
147 80 80
177 108 108
201 132 141
91 25 36
131 79 82
159 85 85
136 106 118
217 134 143
187 151 152
234 134 135
60 37 60
178 114 134
48 28 48
176 144 144
152 97 121
164 105 105
28 17 47
148 127 129
138 130 134
182 142 155
136 136 136
23 14 23
137 130 130
65 31 65
184 182 186
135 118 146
188 183 189
0 0 0
78 47 52
87 32 32
136 136 137
81 73 121
97 91 160
118 89 126
139 137 157
64 64 105
140 137 148
161 147 169
47 28 47
128 110 110
133 88 136
132 130 137
76 54 76
0 0 0
108 103 173
58 45 108
113 98 168
130 124 136
134 126 208
141 134 187
108 108 177
48 25 68
89 82 135
96 96 159
120 112 185
115 109 179
127 116 164
99 86 142
0 0 0
0 0 0
129 72 82
69 39 50
0 0 0
159 91 99
53 32 53
56 20 42
114 69 69
129 79 79
217 131 138
177 108 108
193 137 145
97 39 52
126 65 102
184 153 159
150 87 91
189 106 106
197 160 167
72 44 65
47 10 17
91 59 91
114 79 114
182 112 147
142 135 137
130 129 130
80 47 53
77 77 77
156 94 94
136 132 136
110 67 78
43 27 70
164 162 164
141 139 140
91 55 59
73 44 73
177 177 177
47 47 77
60 60 100
84 65 108
166 166 181
81 81 137
89 88 88
48 30 50
140 140 159
157 157 200
185 185 208
123 117 123
136 133 136
0 0 0
62 37 62
99 85 138
116 95 184
98 82 148
69 69 121
108 108 179
131 130 214
142 133 218
158 151 220
78 48 94
62 61 100
59 58 161
41 25 67
76 76 125
79 79 129
47 28 47
53 20 32
77 44 52
97 59 95
143 87 101
170 91 94
111 68 97
167 101 101
115 61 63
198 135 155
176 125 127
129 79 79
157 89 100
209 127 140
174 97 120
172 104 118
121 73 81
0 0 0
87 53 53
0 0 0
0 0 0
53 32 53
139 117 153
0 0 0
119 99 99
184 163 163
150 108 144
159 159 159
64 59 68
146 126 146
114 114 120
132 130 132
132 129 149
55 25 59
163 163 163
165 147 160
196 156 156
187 186 197
171 145 159
177 177 177
193 193 206
132 132 148
81 70 116
101 100 101
139 139 139
128 78 98
144 106 161
136 136 136
101 61 126
84 82 139
69 52 109
97 92 156
58 41 111
130 119 186
30 18 30
131 130 217
97 54 89
149 149 201
56 34 92
123 95 153
89 76 126
73 70 121
69 69 114
65 62 108
60 60 100
123 75 84
129 79 79
103 45 72
129 78 94
204 121 123
110 61 100
184 127 127
100 37 42
51 13 19
84 51 84
136 107 116
152 85 85
136 89 93
209 143 143
203 115 121
131 80 89
146 64 64
114 69 69
119 72 94
0 0 0
179 179 182
194 150 150
0 0 0
114 69 69
149 140 150
100 100 120
154 143 157
128 110 110
177 176 201
149 149 166
186 186 186
170 149 168
172 172 176
181 181 182
121 70 73
186 152 152
136 136 136
22 22 37
159 159 159
87 53 53
170 131 131
113 91 158
178 177 208
28 28 77
184 182 187
196 177 177
174 160 165
92 83 137
93 86 157
89 54 91
114 104 173
109 109 194
136 132 136
143 134 186
92 81 141
110 109 182
131 114 146
127 125 210
82 50 91
85 85 159
92 83 137
37 37 100
60 37 60
102 102 171
141 80 83
58 21 25
28 10 28
116 70 93
146 76 76
183 130 130
136 87 114
170 121 123
197 133 136
245 174 175
182 108 109
146 71 71
199 120 120
129 79 79
131 80 89
152 80 106
130 129 130
135 131 135
0 0 0
87 32 39
152 130 130
143 143 167
100 60 60
146 139 146
72 34 55
53 53 87
90 35 41
78 78 128
118 70 77
182 182 205
224 224 224
134 134 166
174 172 180
137 119 147
131 97 135
129 129 129
122 108 126
190 190 212
98 90 92
199 183 202
176 149 165
111 111 111
173 173 173
182 182 182
150 150 182
141 140 161
0 0 0
100 86 142
87 81 143
101 101 136
100 78 148
170 170 249
85 81 140
131 129 225
86 66 120
124 114 188
108 108 136
124 108 173
32 12 32
126 118 186
96 96 159
54 48 131
96 85 140
27 10 27
146 89 106
69 42 69
140 85 97
113 55 89
20 7 32
138 80 93
143 87 101
189 135 152
186 150 155
176 123 131
220 154 154
218 134 144
131 79 80
213 129 129
171 94 95
122 62 62
171 144 151
68 33 55
122 108 108
136 83 92
100 37 37
117 69 71
156 156 156
110 63 67
139 123 123
78 78 128
0 0 0
77 28 28
100 60 60
47 47 77
108 66 66
152 152 152
182 182 184
157 146 146
167 143 143
142 136 138
217 217 219
197 197 197
93 93 128
185 145 158
188 188 189
198 197 198
196 186 190
122 120 143
128 78 78
140 136 168
146 143 177
21 21 41
127 127 157
118 113 187
94 79 129
103 86 146
112 108 179
96 90 170
143 143 209
12 4 34
112 89 152
132 127 193
108 88 148
47 28 47
33 32 90
60 37 60
73 60 100
65 61 101
15 9 67
131 80 89
128 47 47
53 20 32
91 55 68
142 82 95
205 111 123
152 97 97
87 32 32
225 138 150
184 112 112
187 140 141
183 99 100
145 85 99
171 100 101
129 79 79
0 0 0
133 123 139
185 145 153
136 93 115
144 89 99
53 53 87
139 123 123
201 191 191
224 224 224
201 197 197
178 150 174
93 34 56
196 190 196
0 0 0
167 167 167
181 148 148
135 135 147
172 155 172
87 32 32
102 102 123
164 164 183
143 138 154
162 140 201
185 184 187
176 174 174
83 83 115
175 165 181
150 119 163
80 56 63
179 179 204
103 103 129
116 116 133
76 71 126
124 124 205
157 151 186
51 51 109
115 112 145
70 44 88
108 108 177
134 129 183
122 98 173
99 86 145
79 79 129
69 69 114
79 79 130
83 83 157
64 32 81
0 0 0
73 44 81
217 131 149
17 10 47
182 106 106
114 69 69
172 124 124
89 28 28
192 116 131
224 153 166
17 6 28
28 6 17
136 80 83
177 108 108
182 112 113
129 76 88
97 36 42
100 37 37
172 137 137
182 135 141
163 88 88
100 59 90
217 134 146
143 118 147
240 229 229
255 255 255
188 188 201
62 51 122
69 42 83
173 169 173
151 135 155
174 173 185
149 134 157
167 160 167
206 193 193
142 142 142
189 148 153
208 200 200
69 67 116
151 143 149
208 208 236
202 201 225
203 203 215
189 189 190
170 170 216
175 175 197
152 130 157
209 205 215
82 80 132
109 92 159
111 111 192
56 33 78
105 102 182
131 131 186
97 97 145
96 61 100
32 29 80
69 69 114
125 109 139
101 87 143
79 79 129
0 0 0
60 60 100
84 82 163
49 49 81
127 66 72
69 42 69
116 70 81
144 80 84
167 101 121
136 128 136
182 112 114
136 108 108
130 79 129
142 81 91
182 113 124
159 85 85
129 79 79
110 39 47
189 110 115
128 67 70
131 79 80
100 60 60
118 54 77
160 85 86
220 137 144
167 101 101
117 71 84
37 22 73
139 139 139
94 94 156
105 63 105
83 80 137
102 87 150
129 129 129
87 87 87
25 15 68
162 140 145
53 53 87
107 67 114
108 95 122
156 143 174
167 140 147
199 186 187
180 171 197
116 108 116
127 127 127
98 63 63
179 179 193
187 182 188
171 152 187
157 148 192
104 99 122
86 76 126
80 63 119
127 127 182
127 125 206
100 92 152
18 18 30
94 83 152
109 109 188
83 68 138
79 79 129
37 27 115
86 72 126
85 80 136
95 65 135
79 79 129
28 28 77
136 112 120
84 50 103
142 81 88
143 87 101
134 52 79
129 79 79
84 51 84
0 0 0
165 84 99
136 81 85
91 55 91
20 3 12
138 89 106
129 79 79
68 33 55
47 17 28
108 65 94
163 85 106
164 81 96
158 96 96
131 56 73
98 37 44
0 0 0
0 0 0
32 20 53
104 104 172
110 109 120
99 99 163
89 76 126
91 55 68
136 75 91
28 28 77
139 117 117
49 30 64
152 146 173
110 91 160
177 164 207
156 149 170
115 105 146
188 188 204
194 181 181
101 101 166
153 119 127
135 132 136
75 71 116
181 160 165
178 170 183
197 169 171
157 156 192
59 42 91
63 62 109
148 141 242
108 108 178
72 42 79
65 40 74
45 40 108
70 44 100
90 74 134
120 110 184
96 85 136
0 0 0
23 23 38
79 79 136
83 80 136
114 69 69
82 38 45
129 79 79
70 31 75
146 89 117
180 104 119
195 113 113
159 96 96
116 69 73
126 71 76
202 118 124
189 114 124
168 93 106
150 63 83
187 132 145
101 44 73
65 27 57
140 81 88
89 53 56
184 85 92
94 57 129
89 46 76
0 0 0
0 0 0
0 0 0
101 100 148
94 90 138
139 127 170
0 0 0
69 69 114
151 141 175
173 156 160
154 151 172
137 114 118
201 201 211
134 126 168
118 106 174
128 120 172
157 154 154
125 125 125
145 145 162
86 69 113
125 125 125
169 169 169
151 146 155
154 136 141
193 188 206
122 122 125
13 10 36
135 121 206
47 47 129
152 144 185
82 82 147
128 118 203
58 35 97
80 80 138
154 134 228
80 75 143
137 137 197
28 28 77
47 28 47
0 0 0
109 109 154
96 85 140
121 73 81
108 65 74
133 73 73
182 105 123
60 22 37
177 120 122
133 73 73
193 91 93
46 26 51
147 86 112
0 0 0
100 37 37
196 119 119
217 130 131
65 38 65
53 12 20
97 42 55
129 129 129
179 104 115
69 42 69
108 51 74
184 105 105
0 0 0
129 129 129
135 132 135
152 115 162
65 65 107
154 138 138
143 143 157
199 199 208
121 42 91
82 82 146
133 133 133
163 139 139
148 144 175
126 106 168
67 30 43
67 61 98
70 69 133
161 161 161
67 66 132
139 139 169
161 161 176
153 153 153
163 163 182
12 6 16
181 181 186
170 147 172
141 119 123
32 12 32
75 75 123
137 135 212
120 120 202
110 109 183
59 55 97
116 112 186
115 112 152
117 104 150
103 88 146
29 18 29
40 24 74
69 69 114
136 135 218
53 53 87
77 17 17
0 0 0
12 7 20
0 0 0
132 80 80
47 17 28
131 79 97
72 42 69
94 39 70
200 134 152
135 80 82
182 100 112
167 98 101
142 88 88
98 16 26
115 70 71
123 66 78
146 112 120
100 22 22
213 123 133
149 114 124
182 182 182
129 129 129
159 141 159
144 138 158
137 130 132
158 140 140
203 200 203
193 193 206
193 177 200
202 202 218
149 143 187
176 172 172
170 148 153
176 172 182
65 36 42
105 60 93
97 86 135
64 62 132
85 76 164
58 58 96
153 153 153
0 0 0
59 58 96
116 116 168
148 140 170
179 179 180
47 42 103
130 105 162
82 79 131
133 128 219
111 109 182
83 58 123
83 57 93
108 107 182
46 28 76
127 120 162
7 7 20
45 27 74
92 60 114
79 79 129
79 79 129
93 84 154
83 50 83
0 0 0
98 45 67
14 3 14
218 128 132
77 28 28
139 81 81
120 50 51
53 20 32
206 132 141
175 106 115
152 80 87
69 42 69
139 58 58
153 56 61
121 70 73
128 63 63
0 0 0
140 133 140
119 114 115
110 63 67
136 42 42
143 143 167
220 220 220
131 130 131
238 238 246
217 217 217
172 149 149
213 210 213
152 152 152
64 53 87
135 130 131
149 149 172
159 159 159
129 129 142
103 95 143
94 90 120
80 80 127
91 85 132
75 53 76
104 102 162
113 110 111
119 79 79
194 180 194
138 138 180
98 61 68
20 17 30
122 55 75
149 148 171
53 53 96
0 0 0
88 86 147
95 83 147
49 49 102
80 52 100
143 143 209
0 0 0
77 74 136
66 66 126
78 41 67
28 17 47
56 50 137
127 127 186
120 109 140
101 101 167
121 73 81
0 0 0
187 114 114
150 82 97
131 80 89
139 75 75
172 102 102
172 109 112
113 44 66
169 92 95
131 58 60
129 79 79
73 37 60
87 32 32
0 0 0
164 111 111
64 35 64
140 73 85
107 70 113
205 162 163
176 120 151
172 149 149
192 170 188
129 129 129
116 70 81
158 158 164
182 182 182
176 176 176
138 138 152
138 138 155
242 219 219
159 140 140
94 64 117
197 172 198
129 129 129
160 153 198
79 77 127
79 57 65
49 46 46
121 96 128
102 65 92
36 36 45
154 154 184
132 132 133
135 131 149
127 126 130
157 105 105
149 91 103
115 80 122
142 140 182
109 102 138
124 116 191
92 78 135
93 93 136
108 108 177
69 69 114
37 22 60
89 82 135
101 87 136
28 17 47
82 80 135
143 135 151
90 89 148
69 42 69
205 124 124
62 37 62
135 81 81
135 79 80
190 108 108
110 47 63
139 81 87
152 81 83
154 91 105
78 47 78
126 75 86
235 154 155
129 79 79
142 101 102
87 32 32
60 60 100
102 102 107
80 47 47
117 104 139
32 20 53
0 0 0
100 37 37
53 53 87
166 164 166
129 129 136
0 0 0
84 84 139
129 129 129
12 5 7
129 129 129
84 84 139
174 158 179
116 73 100
149 149 172
187 184 187
126 124 162
131 129 195
84 59 115
85 68 95
146 138 146
158 157 178
163 163 163
36 34 36
68 50 71
148 134 150
204 168 169
132 111 112
73 51 70
153 148 191
118 118 136
146 137 195
118 111 194
123 105 176
100 99 174
133 115 156
112 105 178
108 108 177
120 119 181
118 113 198
110 85 167
0 0 0
28 17 47
79 79 129
59 25 55
129 79 79
0 0 0
114 69 69
74 40 65
122 71 75
177 108 108
209 145 153
132 56 98
162 96 98
129 79 79
133 80 85
179 120 123
172 100 100
177 141 142
144 96 117
181 137 140
156 94 94
37 23 37
183 94 94
208 156 156
146 89 89
0 0 0
164 126 126
139 139 172
53 53 87
48 48 131
128 78 78
29 11 47
170 170 170
194 191 194
224 222 224
176 151 156
185 185 185
143 143 157
156 149 173
120 116 117
88 88 110
51 51 63
44 44 44
174 151 189
85 85 121
27 23 40
71 56 75
134 125 148
110 110 112
133 112 114
130 128 143
114 108 148
156 151 177
111 69 107
110 110 182
9 9 25
113 98 152
118 98 178
134 134 212
111 110 192
15 15 68
83 80 138
55 42 97
79 79 129
131 129 187
69 69 114
76 71 126
61 34 91
129 79 79
129 79 79
0 0 0
139 75 75
146 92 113
132 80 80
142 81 89
135 80 82
60 37 60
75 27 45
60 37 60
206 129 131
93 38 38
53 12 20
182 182 182
142 138 142
187 148 153
0 0 0
167 143 143
0 0 0
164 146 146
186 179 179
137 137 152
87 87 87
182 182 182
197 172 178
212 212 212
147 136 156
54 34 56
145 144 159
144 143 145
190 190 198
252 252 252
231 231 249
190 190 207
138 134 157
145 136 139
113 90 141
89 84 167
183 183 213
141 130 137
13 13 22
86 77 116
82 51 83
178 160 160
217 177 184
97 95 97
131 130 131
72 72 130
129 129 129
182 182 182
136 84 98
123 93 170
9 9 28
107 76 140
159 151 220
88 57 111
108 95 162
0 0 0
65 62 108
0 0 0
86 86 153
37 37 101
47 17 28
92 56 56
181 90 90
87 53 53
0 0 0
183 130 130
129 79 79
131 79 82
129 79 79
147 78 84
209 139 139
111 60 98
114 69 69
24 9 40
65 61 102
186 182 182
202 189 189
193 159 163
190 183 185
206 183 188
129 129 129
187 187 197
136 136 136
220 215 219
153 101 121
217 217 217
172 172 172
178 177 179
186 186 186
182 182 182
177 177 177
152 147 176
188 187 193
131 130 130
224 221 221
187 182 187
43 30 83
146 137 146
105 77 126
119 85 86
71 71 90
106 82 134
74 72 119
147 132 133
157 114 144
225 213 226
224 218 218
155 144 171
96 96 158
102 101 108
111 79 125
148 147 149
174 164 188
0 0 0
70 43 82
115 112 206
48 22 47
0 0 0
109 66 109
90 75 124
94 79 129
88 53 88
47 28 47
82 79 130
47 17 28
0 0 0
149 102 102
76 17 28
18 11 18
0 0 0
0 0 0
129 79 94
147 56 82
172 97 110
91 50 79
101 61 61
113 55 55
186 154 154
100 60 60
213 194 208
217 194 194
87 32 32
152 114 117
114 107 137
163 160 163
136 136 136
164 164 164
217 217 217
174 152 174
224 221 224
207 190 190
203 182 196
143 136 137
142 86 114
36 22 51
157 157 157
137 136 136
140 135 142
217 217 217
132 130 130
156 154 156
131 102 137
146 99 140
24 14 24
0 0 0
74 58 115
163 163 163
198 194 210
255 255 255
189 188 188
255 255 255
111 67 67
70 34 54
54 49 82
47 28 47
84 84 136
112 90 160
81 71 122
97 85 136
106 106 164
85 80 138
62 37 61
87 83 173
78 78 152
73 44 81
80 59 135
86 74 122
44 36 99
84 80 141
135 64 68
129 79 79
17 10 47
47 17 28
100 37 37
0 0 0
148 77 81
172 105 112
135 79 80
136 87 87
197 185 190
197 194 215
60 37 60
147 135 135
142 136 138
175 124 136
255 255 255
173 146 156
197 184 187
162 131 143
239 213 213
140 140 159
149 123 153
140 96 127
186 186 186
249 227 227
212 194 200
142 142 152
217 201 220
222 219 231
156 156 172
217 217 217
219 219 229
0 0 0
177 177 177
234 223 228
182 179 182
77 77 126
65 65 102
180 156 175
97 50 76
46 46 53
108 108 169
67 67 110
38 37 38
67 41 67
53 39 64
79 79 134
37 15 25
111 67 67
151 151 174
139 139 144
105 97 181
69 69 71
92 87 163
0 0 0
149 139 221
84 71 117
73 42 69
83 83 152
32 17 49
90 42 80
53 32 53
79 79 129
143 87 101
110 63 67
159 96 96
167 101 101
76 46 76
126 76 89
186 130 132
164 98 119
114 69 69
206 160 160
189 174 175
123 75 75
177 156 177
102 88 123
119 78 130
126 89 118
177 177 177
178 178 185
215 215 215
151 143 168
139 135 153
209 191 191
191 191 209
60 60 100
209 191 220
187 187 187
213 213 213
187 182 184
210 200 219
202 189 189
151 151 177
39 20 53
149 107 155
177 177 177
136 136 136
186 186 203
130 130 136
208 191 191
220 218 220
140 133 140
192 183 184
164 138 168
177 177 178
211 198 215
130 130 131
148 113 167
127 72 86
173 146 150
0 0 0
196 190 216
149 147 172
141 136 164
202 198 227
137 132 137
129 129 129
86 78 143
88 53 88
47 28 47
28 17 47
76 44 92
47 17 28
42 22 59
0 0 0
69 69 114
149 90 109
0 0 0
206 136 143
90 33 57
182 124 124
182 134 144
152 104 105
171 102 102
182 179 182
150 145 164
197 160 163
84 51 65
129 129 129
180 159 172
59 33 59
100 60 60
146 142 159
184 146 146
47 28 47
157 143 143
173 144 150
191 191 201
80 77 126
86 80 136
68 42 68
102 61 61
81 81 133
182 182 182
177 177 177
213 185 203
191 191 209
195 161 180
186 186 186
60 60 100
194 186 186
117 102 157
187 181 187
77 47 47
135 135 147
187 187 205
0 0 0
136 136 136
194 194 216
220 220 220
186 184 187
186 182 183
168 167 212
186 186 186
136 136 136
226 226 246
164 164 164
100 100 100
178 178 182
129 129 129
183 183 187
95 61 95
103 84 157
131 112 188
108 108 177
0 0 0
69 69 114
76 76 125
0 0 0
32 19 37
152 92 92
114 69 69
136 85 96
135 79 79
127 72 77
154 84 87
170 93 106
162 145 162
69 69 114
53 20 32
80 35 60
167 114 143
159 140 140
179 158 174
224 221 224
49 28 49
186 186 186
87 53 53
224 224 224
148 134 138
157 143 143
119 70 78
167 143 143
249 249 249
177 177 177
87 87 87
180 148 159
136 136 136
187 149 150
129 129 129
176 164 164
185 150 154
206 196 213
154 135 136
137 132 138
0 0 0
183 179 183
28 28 77
182 182 182
189 184 189
152 132 132
129 129 129
136 136 136
97 69 69
200 199 199
206 180 224
200 199 203
129 129 129
104 98 174
142 116 121
168 148 151
111 109 154
143 138 143
193 191 206
77 51 108
49 30 64
79 79 129
93 85 154
0 0 0
67 41 67
79 79 129
103 101 185
87 84 138
88 82 144
95 38 61
129 79 94
73 44 75
173 128 144
53 20 32
237 174 176
182 147 152
154 133 136
137 136 137
172 149 149
177 151 154
145 114 136
164 142 142
129 129 129
0 0 0
136 136 136
148 130 132
159 145 170
131 130 130
172 149 149
175 150 150
0 0 0
132 130 132
0 0 0
162 145 149
139 108 156
191 181 186
176 150 164
159 149 172
159 159 159
0 0 0
114 80 92
85 48 72
249 248 249
48 48 48
29 29 80
177 177 177
149 147 177
69 69 114
118 71 89
129 129 129
73 73 133
118 113 169
146 146 177
0 0 0
146 145 164
157 153 189
172 149 149
140 133 140
191 184 191
175 175 175
129 129 129
183 183 186
88 64 81
60 37 60
137 114 114
0 0 0
145 141 160
99 80 138
80 79 135
0 0 0
0 0 0
62 61 108
4 3 20
